<svg width="1200" height="800" viewBox="0 0 1200 800" fill="none" xmlns="http://www.w3.org/2000/svg">
  <defs>
    <linearGradient id="bg" x1="0" y1="0" x2="1200" y2="800" gradientUnits="userSpaceOnUse">
      <stop stop-color="#EEF2FF"/>
      <stop offset="1" stop-color="#F8FAFF"/>
    </linearGradient>
    <linearGradient id="screen" x1="0" y1="0" x2="0" y2="1">
      <stop stop-color="#FFFFFF"/>
      <stop offset="1" stop-color="#F3F6FF"/>
    </linearGradient>
    <linearGradient id="accent" x1="0" y1="0" x2="1" y2="1">
      <stop stop-color="#2563EB"/>
      <stop offset="1" stop-color="#1D4ED8"/>
    </linearGradient>
    <filter id="shadow" x="-20" y="-20" width="1240" height="860" color-interpolation-filters="sRGB">
      <feDropShadow dx="0" dy="24" stdDeviation="22" flood-color="#0B1220" flood-opacity="0.14"/>
    </filter>
  </defs>

  <rect width="1200" height="800" rx="48" fill="url(#bg)"/>

  <!-- Laptop body -->
  <g filter="url(#shadow)">
    <rect x="160" y="130" width="880" height="520" rx="28" fill="url(#screen)" stroke="#D7DEEA" stroke-width="2"/>
    <rect x="160" y="130" width="880" height="64" rx="28" fill="#F7F9FF" stroke="#D7DEEA" stroke-width="2"/>
    <circle cx="205" cy="162" r="7" fill="#E11D48" fill-opacity="0.75"/>
    <circle cx="232" cy="162" r="7" fill="#F59E0B" fill-opacity="0.75"/>
    <circle cx="259" cy="162" r="7" fill="#10B981" fill-opacity="0.75"/>

    <!-- Left sidebar -->
    <rect x="190" y="214" width="190" height="406" rx="18" fill="#0B1220" fill-opacity="0.92"/>
    <rect x="210" y="248" width="110" height="18" rx="9" fill="#FFFFFF" fill-opacity="0.85"/>
    <rect x="210" y="292" width="150" height="14" rx="7" fill="#FFFFFF" fill-opacity="0.28"/>
    <rect x="210" y="324" width="150" height="14" rx="7" fill="#FFFFFF" fill-opacity="0.28"/>
    <rect x="210" y="356" width="150" height="14" rx="7" fill="#FFFFFF" fill-opacity="0.28"/>
    <rect x="210" y="388" width="150" height="14" rx="7" fill="#FFFFFF" fill-opacity="0.28"/>
    <rect x="210" y="420" width="150" height="14" rx="7" fill="#FFFFFF" fill-opacity="0.28"/>
    <rect x="205" y="458" width="170" height="46" rx="14" fill="url(#accent)"/>

    <!-- Main header -->
    <rect x="410" y="214" width="600" height="56" rx="18" fill="#FFFFFF" stroke="#D7DEEA" stroke-width="2"/>
    <rect x="436" y="232" width="260" height="20" rx="10" fill="#94A3B8" fill-opacity="0.25"/>
    <circle cx="948" cy="242" r="10" fill="#2563EB" fill-opacity="0.22"/>
    <circle cx="978" cy="242" r="10" fill="#2563EB" fill-opacity="0.22"/>

    <!-- KPI cards -->
    <rect x="410" y="294" width="186" height="128" rx="22" fill="#FFFFFF" stroke="#D7DEEA" stroke-width="2"/>
    <rect x="430" y="320" width="46" height="46" rx="16" fill="#2563EB" fill-opacity="0.12"/>
    <rect x="430" y="378" width="90" height="14" rx="7" fill="#94A3B8" fill-opacity="0.35"/>
    <rect x="430" y="400" width="130" height="20" rx="10" fill="#0F172A" fill-opacity="0.12"/>

    <rect x="612" y="294" width="186" height="128" rx="22" fill="#FFFFFF" stroke="#D7DEEA" stroke-width="2"/>
    <rect x="632" y="320" width="46" height="46" rx="16" fill="#10B981" fill-opacity="0.14"/>
    <rect x="632" y="378" width="80" height="14" rx="7" fill="#94A3B8" fill-opacity="0.35"/>
    <rect x="632" y="400" width="130" height="20" rx="10" fill="#0F172A" fill-opacity="0.12"/>

    <rect x="814" y="294" width="196" height="128" rx="22" fill="#FFFFFF" stroke="#D7DEEA" stroke-width="2"/>
    <rect x="834" y="320" width="46" height="46" rx="16" fill="#F59E0B" fill-opacity="0.18"/>
    <rect x="834" y="378" width="98" height="14" rx="7" fill="#94A3B8" fill-opacity="0.35"/>
    <rect x="834" y="400" width="140" height="20" rx="10" fill="#0F172A" fill-opacity="0.12"/>

    <!-- Chart -->
    <rect x="410" y="446" width="600" height="174" rx="24" fill="#FFFFFF" stroke="#D7DEEA" stroke-width="2"/>
    <rect x="440" y="478" width="260" height="16" rx="8" fill="#94A3B8" fill-opacity="0.30"/>
    <rect x="440" y="518" width="26" height="70" rx="13" fill="#2563EB" fill-opacity="0.18"/>
    <rect x="474" y="500" width="26" height="88" rx="13" fill="#2563EB" fill-opacity="0.28"/>
    <rect x="508" y="532" width="26" height="56" rx="13" fill="#2563EB" fill-opacity="0.22"/>
    <rect x="542" y="486" width="26" height="102" rx="13" fill="#2563EB" fill-opacity="0.46"/>
    <rect x="576" y="514" width="26" height="74" rx="13" fill="#2563EB" fill-opacity="0.25"/>
    <rect x="610" y="540" width="26" height="48" rx="13" fill="#2563EB" fill-opacity="0.18"/>
    <rect x="644" y="506" width="26" height="82" rx="13" fill="#2563EB" fill-opacity="0.22"/>
  </g>

  <!-- Bottom base -->
  <path d="M140 666C140 650.536 152.536 638 168 638H1032C1047.46 638 1060 650.536 1060 666V680C1060 702.091 1042.09 720 1020 720H180C157.909 720 140 702.091 140 680V666Z" fill="#E7ECF8"/>
  <rect x="524" y="650" width="152" height="18" rx="9" fill="#C9D4EA"/>
</svg>
